<svg viewBox="0 0 40 40" xmlns="http://www.w3.org/2000/svg" xmlns:xlink="http://www.w3.org/1999/xlink" width="40.000000" height="40.000000" fill="none">
	<rect id="icons" width="40.000000" height="40.000000" x="0.000000" y="0.000000" />
	<path id="GitHub_2" d="M19.7333 7.19995C17.9824 7.19995 16.2486 7.54483 14.6309 8.21489C13.0132 8.88495 11.5434 9.86708 10.3053 11.1052C7.80478 13.6057 6.40002 16.9971 6.40002 20.5333C6.40002 26.4266 10.2267 31.4266 15.52 33.2C16.1867 33.3066 16.4 32.8933 16.4 32.5333L16.4 30.28C12.7067 31.08 11.92 28.4933 11.92 28.4933C11.3067 26.9466 10.44 26.5333 10.44 26.5333C9.22669 25.7066 10.5334 25.7333 10.5334 25.7333C11.8667 25.8266 12.5734 27.1066 12.5734 27.1066C13.7334 29.1333 15.6933 28.5333 16.4534 28.2133C16.5733 27.3466 16.92 26.76 17.2933 26.4266C14.3334 26.0933 11.2267 24.9466 11.2267 19.8666C11.2267 18.3866 11.7334 17.2 12.6 16.2533C12.4667 15.92 12 14.5333 12.7334 12.7333C12.7334 12.7333 13.8534 12.3733 16.4 14.0933C17.4533 13.8 18.6 13.6533 19.7333 13.6533C20.8667 13.6533 22.0133 13.8 23.0667 14.0933C25.6133 12.3733 26.7333 12.7333 26.7333 12.7333C27.4667 14.5333 27 15.92 26.8667 16.2533C27.7333 17.2 28.24 18.3866 28.24 19.8666C28.24 24.96 25.12 26.08 22.1467 26.4133C22.6267 26.8266 23.0667 27.64 23.0667 28.88L23.0667 32.5333C23.0667 32.8933 23.28 33.32 23.96 33.2C29.2533 31.4133 33.0667 26.4266 33.0667 20.5333C33.0667 18.7823 32.7218 17.0485 32.0517 15.4308C31.3817 13.8132 30.3995 12.3433 29.1614 11.1052C27.9233 9.86708 26.4535 8.88495 24.8358 8.21489C23.2181 7.54483 21.4843 7.19995 19.7333 7.19995Z" fill="rgb(20,20,26)" fill-rule="evenodd" />
</svg>
