<svg viewBox="0 0 40 40" xmlns="http://www.w3.org/2000/svg" xmlns:xlink="http://www.w3.org/1999/xlink" width="40.000000" height="40.000000" fill="none">
	<rect id="icons" width="40.000000" height="40.000000" x="0.000000" y="0.000000" />
	<path id="Vector_5" d="M29.3333 8C30.0406 8 30.7189 8.28095 31.219 8.78105C31.7191 9.28115 32 9.95942 32 10.6667L32 29.3333C32 30.0406 31.7191 30.7189 31.219 31.219C30.7189 31.7191 30.0406 32 29.3333 32L10.6667 32C9.95942 32 9.28115 31.7191 8.78105 31.219C8.28095 30.7189 8 30.0406 8 29.3333L8 10.6667C8 9.95942 8.28095 9.28115 8.78105 8.78105C9.28115 8.28095 9.95942 8 10.6667 8L29.3333 8ZM28.6667 28.6667L28.6667 21.6C28.6667 20.4472 28.2087 19.3416 27.3936 18.5264C26.5784 17.7113 25.4728 17.2533 24.32 17.2533C23.1867 17.2533 21.8667 17.9467 21.2267 18.9867L21.2267 17.5067L17.5067 17.5067L17.5067 28.6667L21.2267 28.6667L21.2267 22.0933C21.2267 21.0667 22.0533 20.2267 23.08 20.2267C23.5751 20.2267 24.0499 20.4233 24.3999 20.7734C24.75 21.1235 24.9467 21.5983 24.9467 22.0933L24.9467 28.6667L28.6667 28.6667ZM13.1733 15.4133C13.7674 15.4133 14.3372 15.1773 14.7573 14.7573C15.1773 14.3372 15.4133 13.7674 15.4133 13.1733C15.4133 11.9333 14.4133 10.92 13.1733 10.92C12.5757 10.92 12.0026 11.1574 11.58 11.58C11.1574 12.0026 10.92 12.5757 10.92 13.1733C10.92 14.4133 11.9333 15.4133 13.1733 15.4133ZM15.0267 28.6667L15.0267 17.5067L11.3333 17.5067L11.3333 28.6667L15.0267 28.6667Z" fill="rgb(20,20,26)" fill-rule="evenodd" />
</svg>
