<svg viewBox="0 0 40 40" xmlns="http://www.w3.org/2000/svg" xmlns:xlink="http://www.w3.org/1999/xlink" width="40.000000" height="40.000000" fill="none">
	<rect id="icons" width="40.000000" height="40.000000" x="0.000000" y="0.000000" />
	<path id="telegram" d="M19.7333 6.40002C12.3734 6.40002 6.40002 12.3734 6.40002 19.7333C6.40002 27.0933 12.3734 33.0667 19.7333 33.0667C27.0933 33.0667 33.0667 27.0933 33.0667 19.7333C33.0667 12.3734 27.0933 6.40002 19.7333 6.40002ZM25.92 15.4667C25.72 17.5733 24.8533 22.6933 24.4133 25.0533C24.2267 26.0533 23.8533 26.3867 23.5067 26.4267C22.7333 26.4933 22.1467 25.92 21.4 25.4267C20.2267 24.6533 19.56 24.1733 18.4267 23.4267C17.1067 22.56 17.96 22.08 18.72 21.3067C18.92 21.1067 22.3333 18 22.4 17.72C22.4093 17.6776 22.408 17.6336 22.3964 17.5918C22.3848 17.5499 22.3632 17.5116 22.3333 17.48C22.2533 17.4133 22.1467 17.44 22.0533 17.4534C21.9333 17.48 20.0667 18.72 16.4267 21.1733C15.8934 21.5333 15.4134 21.72 14.9867 21.7067C14.5067 21.6933 13.6 21.44 12.92 21.2133C12.08 20.9467 11.4267 20.8 11.48 20.3333C11.5067 20.0933 11.84 19.8533 12.4667 19.6C16.36 17.9067 18.9467 16.7867 20.24 16.2533C23.9467 14.7067 24.7067 14.44 25.2133 14.44C25.32 14.44 25.5733 14.4667 25.7333 14.6C25.8667 14.7067 25.9067 14.8534 25.92 14.96C25.9067 15.04 25.9333 15.28 25.92 15.4667Z" fill="rgb(20,20,26)" fill-rule="evenodd" />
</svg>
